PathFileType	4	(X/Y/Z)	/Users/niels/Desktop/University/Third Semester/Perception and Action/Exam/Gymnastics Motion Tracking/Code for Gym Tracking/Analyzed Data/Webcam_Backflip/id1_1_trajectory_Sports2D/id1_1_trajectory_Sports2D_px_person00.trc
DataRate	CameraRate	NumFrames	NumMarkers	Units	OrigDataRate	OrigDataStartFrame	OrigNumFrames
29.702970297029704	29.702970297029704	11	22	m	29.702970297029704	0	101
Frame#	Time	Hip			RHip			RKnee			RAnkle			RBigToe			RSmallToe			RHeel			LHip			LKnee			LAnkle			LBigToe			LSmallToe			LHeel			Neck			Head			Nose			RShoulder			RElbow			RWrist			LShoulder			LElbow			LWrist		
		X1	Y1	Z1	X2	Y2	Z2	X3	Y3	Z3	X4	Y4	Z4	X5	Y5	Z5	X6	Y6	Z6	X7	Y7	Z7	X8	Y8	Z8	X9	Y9	Z9	X10	Y10	Z10	X11	Y11	Z11	X12	Y12	Z12	X13	Y13	Z13	X14	Y14	Z14	X15	Y15	Z15	X16	Y16	Z16	X17	Y17	Z17	X18	Y18	Z18	X19	Y19	Z19	X20	Y20	Z20	X21	Y21	Z21	X22	Y22	Z22
0	0.0	0.9779088863015054	-0.7447271908128844	0.0	0.9641248320522804	-0.7497400024482891	0.0	1.0067056525405842	-0.8889715763237623	0.0	0.9916544636331877	-0.999349235201768	0.0	1.0181412449846377	-1.032411504359927	0.0	1.051875365845142	-1.0220952947632869	0.0	0.971585857219677	-0.9993540370856976	0.0	0.996720283045026	-0.7497370757475041	0.0	1.0405546554115583	-0.8676611896371873	0.0	1.0254734192569597	-0.9993627069588341	0.0	1.080624143435572	-0.99935616846045	0.0	1.0261415149502973	-1.0530428291791056	0.0	0.9890915942169857	-0.9993605295287162	0.0	1.021796070712912	-0.5678519592749816	0.0	1.071959579471318	-0.4938333476160979	0.0	1.0719724983863756	-0.5465070632996419	0.0	1.0079994449148055	-0.5804011747734862	0.0	1.0970588068320482	-0.5628506472627339	0.0	1.173550560102694	-0.4900913354277813	0.0	1.02682042983757	-0.5753745508749223	0.0	1.1158663635430837	-0.5377502592799462	0.0	1.1785735216795392	-0.485048980416848	0.0
1	0.033666666666666664	0.9639248906299462	-0.7247134079448612	0.0	0.9494224375615397	-0.7280237353295876	0.0	1.0069903251615575	-0.8555484229399881	0.0	0.9922949959686548	-0.9768833869833745	0.0	1.0280153317988674	-0.998957521599531	0.0	1.0483883508373681	-0.9955136989796542	0.0	0.9752047419015066	-0.9819163386409849	0.0	0.9840077420451941	-0.7277162751765262	0.0	1.0362890222784331	-0.8360925278094872	0.0	1.0262522317504712	-0.9677624567178479	0.0	1.0793873084687258	-0.9733404343687744	0.0	1.0400482703603624	-1.0037127194613626	0.0	0.9985149349300481	-0.9747510735779877	0.0	1.018630942794146	-0.5527063502082268	0.0	1.072064990401836	-0.4814171816539405	0.0	1.067934747719829	-0.5340763222702509	0.0	1.0060589321364362	-0.5642299045469464	0.0	1.0940186973606727	-0.5529438670249266	0.0	1.1752144017590314	-0.49307835375657155	0.0	1.014821071883306	-0.5600543728915544	0.0	1.0643968556648056	-0.5559329795175255	0.0	1.1346598055298769	-0.5333396870700368	0.0
2	0.06733333333333333	0.9494003812224718	-0.70132007463665	0.0	0.9342083808994712	-0.703018104561879	0.0	1.0055518412491027	-0.820046138948054	0.0	0.9920459751965907	-0.9508821280407718	0.0	1.0357952117851104	-0.9646965164371539	0.0	1.0443088535981833	-0.9668314795229375	0.0	0.9774334594950346	-0.9606979861084666	0.0	0.9708361602401901	-0.7024546378886549	0.0	1.0311347263996309	-0.8022056713257703	0.0	1.0262350708542671	-0.9341963488738865	0.0	1.0774627217448889	-0.9440260527878318	0.0	1.0512373361409941	-0.9556076557914143	0.0	1.006012402541776	-0.9467856068781806	0.0	1.0155444988468039	-0.5349501874059622	0.0	1.0724421202994538	-0.46652815676230075	0.0	1.064407156986857	-0.5190232441066317	0.0	1.0033691866049987	-0.5453956226952098	0.0	1.0894734022431887	-0.5416436454928927	0.0	1.1747007513010312	-0.4954650606750658	0.0	1.0052893105174616	-0.5419463385314212	0.0	1.0289599873977002	-0.5615439433730264	0.0	1.10599731247829	-0.5634780386572473	0.0
3	0.10099999999999999	0.9342643015033539	-0.6729203647323626	0.0	0.9184937207132592	-0.6731943202114614	0.0	1.0011637093956887	-0.7820729382211944	0.0	0.9898663309315013	-0.9201183681015416	0.0	1.0396212393813613	-0.9297301442188767	0.0	1.0387747539544068	-0.9354265346666054	0.0	0.9769667516769094	-0.9340392033291726	0.0	0.9570500791437526	-0.672513007633698	0.0	1.0244371663815903	-0.7653504902722286	0.0	1.0245245570766197	-0.8981315804408551	0.0	1.0741066703614153	-0.910694922500974	0.0	1.05772672762374	-0.9100680452066234	0.0	1.010072132833109	-0.9144982714700332	0.0	1.0123428341826237	-0.5131288023114339	0.0	1.0729246448666026	-0.4477178411990738	0.0	1.0613502040409974	-0.4999300498929982	0.0	0.9993766824701809	-0.5223412610374166	0.0	1.0823534008374969	-0.5277497975810849	0.0	1.1705469075702701	-0.4957430988455998	0.0	0.9991784974844656	-0.5196033028804208	0.0	1.0161049911159603	-0.550749587852177	0.0	1.098723514707781	-0.5668613387286837	0.0
4	0.13466666666666666	0.9190813845336644	-0.6401948304185558	0.0	0.9029656698936237	-0.6393171524570612	0.0	0.9934200785443805	-0.7433086431912281	0.0	0.9847857140358914	-0.8860197291895691	0.0	1.0382606841636397	-0.8953566020605179	0.0	1.030801622078826	-0.9026874182359043	0.0	0.9728066747918572	-0.902936009102155	0.0	0.9429670403436727	-0.6387533640141511	0.0	1.0159879763530089	-0.7270890719934252	0.0	1.0203046648434748	-0.860961828310118	0.0	1.0688815378297027	-0.8753621619982155	0.0	1.058901742508503	-0.8685253426101779	0.0	1.0097079175468933	-0.8794577799628753	0.0	1.0086481159624578	-0.4873566936351844	0.0	1.0728898463920669	-0.4249542835625228	0.0	1.0582345661416868	-0.47686694537465885	0.0	0.9939539502419402	-0.49505886273259025	0.0	1.0725377492625374	-0.5104985693562691	0.0	1.1624841797894456	-0.49189043066363813	0.0	0.9958603395082732	-0.49336943505695957	0.0	1.0210451190433125	-0.5279049791979461	0.0	1.107349046696897	-0.5475445240824038	0.0
5	0.16833333333333333	0.9047873435146352	-0.6054039464667361	0.0	0.8886183327026488	-0.603680337889614	0.0	0.9826082463565328	-0.7064279350973935	0.0	0.9759308205086065	-0.8514259396053072	0.0	1.0309827870956498	-0.8635471340041914	0.0	1.0193106132668113	-0.8711839872920175	0.0	0.9641485260512465	-0.8700176062125827	0.0	0.9293122647565049	-0.6035046174315778	0.0	1.0058889617924478	-0.6902257608277214	0.0	1.0128123111853249	-0.8250824133990075	0.0	1.0615907123228925	-0.8411208336693454	0.0	1.0551558768957252	-0.8321939146527342	0.0	1.004190014151208	-0.8443047331336742	0.0	1.0041185550483651	-0.45880436784017853	0.0	1.0715867978925555	-0.39911828673867383	0.0	1.0544531698851967	-0.4507778712585228	0.0	0.9873124487185652	-0.464690419888103	0.0	1.0605066615500067	-0.4897741915339001	0.0	1.1512202169650134	-0.4824515033701105	0.0	0.9940552134112229	-0.4647543715400013	0.0	1.0333234903476662	-0.49915886229143386	0.0	1.1209611634770469	-0.5161654442663611	0.0
6	0.20199999999999999	0.8922507423993868	-0.5712888537506211	0.0	0.8762522133093148	-0.5689938265391602	0.0	0.9694139084211515	-0.6737949750869923	0.0	0.9625995703824797	-0.8192427542254946	0.0	1.0173929935169788	-0.8361913135145373	0.0	1.0032686603434218	-0.8434098072148938	0.0	0.9503888813221281	-0.8382380553313836	0.0	0.9169488943096049	-0.5694417703221328	0.0	0.9943400133586392	-0.6573737019435207	0.0	1.0013937392399137	-0.7927161443363564	0.0	1.051578123520817	-0.8107918224450553	0.0	1.0468056608102771	-0.801957651246717	0.0	0.9930927075156216	-0.8116370229819672	0.0	0.9986083424923536	-0.4290771206513853	0.0	1.0685766490833661	-0.3714019141435011	0.0	1.0497102341082394	-0.42294244134773695	0.0	0.9798288100742581	-0.4329803346732297	0.0	1.046859825924948	-0.46625619797464346	0.0	1.1379618662051796	-0.4672612179964769	0.0	0.9924983031739283	-0.4356008717738006	0.0	1.0440018936950037	-0.46883355360958445	0.0	1.1312641353243886	-0.4818506096134062	0.0
7	0.23566666666666664	0.8819119739637508	-0.5401692033659223	0.0	0.8661863461462834	-0.5374768989905508	0.0	0.9545860171923898	-0.646814996813041	0.0	0.9446715227899912	-0.791552202330571	0.0	0.9976746641580471	-0.8145618911991341	0.0	0.9821829352482238	-0.8209929038777615	0.0	0.9315665027688895	-0.809948723522288	0.0	0.9064244842164187	-0.5387482433866069	0.0	0.981470898084594	-0.630166526572624	0.0	0.9858294870902459	-0.765422268577583	0.0	1.0375224811993655	-0.7864026091219379	0.0	1.0335463823729887	-0.7784655688110572	0.0	0.9766955781608778	-0.7835449037271396	0.0	0.9921554996632442	-0.3998026667725985	0.0	1.0639575887772874	-0.3430583552377224	0.0	1.044054263476402	-0.3947724430673319	0.0	0.971937623474031	-0.40184630446668024	0.0	1.0324367625017248	-0.4412380543068348	0.0	1.1242196091109833	-0.4473543118211713	0.0	0.9899316793032837	-0.4074507086233458	0.0	1.0486323177925205	-0.4394948745478564	0.0	1.1351454672598438	-0.44934915965337435	0.0
8	0.2693333333333333	0.8736731718501396	-0.513527707713693	0.0	0.8582327798839268	-0.5104575721799742	0.0	0.9387318448755446	-0.625878249311463	0.0	0.9230048203198254	-0.7692828487732818	0.0	0.9729250765721758	-0.7990352847846656	0.0	0.9566830786075657	-0.8044352890245938	0.0	0.9087747395764567	-0.7864594527559501	0.0	0.8976709450181422	-0.5127284546026403	0.0	0.9672812711101263	-0.6092093112200284	0.0	0.9665762584420738	-0.7439606722631342	0.0	1.0185641348722154	-0.768796611088941	0.0	1.0151733065596094	-0.761820380331656	0.0	0.9561086676462864	-0.7612288889364783	0.0	0.9848775250486297	-0.37239770790723165	0.0	1.058213038789488	-0.3154301503170529	0.0	1.0376252734454952	-0.36774247771153273	0.0	0.9639457922815434	-0.37305793819130517	0.0	1.0183286335292958	-0.4163008708198783	0.0	1.1115749839480056	-0.42452826054817083	0.0	0.9852376026832609	-0.3813001693130946	0.0	1.0463301394126052	-0.4126312921667141	0.0	1.1329080506447478	-0.42028493752057844	0.0
9	0.303	0.8670575963574995	-0.4920584199515653	0.0	0.8518795360721756	-0.4884950389944507	0.0	0.9223014425266334	-0.6105906466264864	0.0	0.8992329942683521	-0.7524108512008605	0.0	0.9449987176804796	-0.7891584863294007	0.0	0.9284800272295088	-0.7932932582084544	0.0	0.8838772801705657	-0.7680876718814073	0.0	0.8901496668195911	-0.4918591555692256	0.0	0.9517183749597362	-0.5943063144986063	0.0	0.9445427928376601	-0.7283258890271709	0.0	0.9950738027608318	-0.7575099778843348	0.0	0.9922349066282521	-0.7512516941763682	0.0	0.9327534168654542	-0.7448656610696262	0.0	0.9769267671832379	-0.347968076993034	0.0	1.0518302773082917	-0.2898965111156604	0.0	1.0304968699873667	-0.3432085740301445	0.0	0.9559078987890247	-0.34799700385187654	0.0	1.0054588433707041	-0.3930489348560332	0.0	1.1011270987661572	-0.40093221973861165	0.0	0.9779745745868942	-0.357781513220921	0.0	1.0382388925161472	-0.3890711387780741	0.0	1.1261649497921657	-0.3948890791223427	0.0
10	0.33666666666666667	0.8614459509025195	-0.47589774866592355	0.0	0.846565069275496	-0.4716895205728265	0.0	0.9056252301051517	-0.6001734535364421	0.0	0.8751305178953822	-0.7404583057703168	0.0	0.9159882307249314	-0.7840397105468139	0.0	0.8996795770252847	-0.7867277381472157	0.0	0.858773226886353	-0.7546526605270296	0.0	0.8832531937976799	-0.47608198865203627	0.0	0.9348157031239803	-0.584784557155332	0.0	0.9206631400069737	-0.7180364563882917	0.0	0.9680869837595287	-0.7513308447193241	0.0	0.9657162678956345	-0.7454828055732626	0.0	0.9077499688936322	-0.7339824573853434	0.0	0.9684938119082112	-0.3273254565532543	0.0	1.0450361837627553	-0.2676130171060282	0.0	1.0227721400083127	-0.3221197246315989	0.0	0.9477520754901937	-0.32752439003034434	0.0	0.9942010059333402	-0.37294669978665823	0.0	1.0928637246230357	-0.3788151685920602	0.0	0.9686528506670989	-0.3374681656076982	0.0	1.0264771739258247	-0.3693261944711333	0.0	1.1166884730943618	-0.37306463680639146	0.0
